<svg xmlns="http://www.w3.org/2000/svg" width="24" height="20" viewBox="0 0 24 20" fill="none">
<path fill-rule="evenodd" clip-rule="evenodd" d="M2 7.89478C3.37032 7.89478 4.72721 8.15616 5.99322 8.66399C7.25922 9.17183 8.40955 9.91618 9.37851 10.8545C10.3475 11.7929 11.1161 12.9069 11.6405 14.1329C12.1649 15.3589 12.4348 16.673 12.4348 18H10.6957C10.6957 16.8942 10.4707 15.7991 10.0337 14.7774C9.59674 13.7558 8.95622 12.8274 8.14876 12.0455C7.34129 11.2635 6.38269 10.6432 5.32768 10.22C4.27268 9.7968 3.14193 9.57899 2 9.57899V7.89478Z" fill="#0A0A0A"/>
<path fill-rule="evenodd" clip-rule="evenodd" d="M2 11.2631C2.91354 11.2631 3.81814 11.4373 4.66215 11.7759C5.50615 12.1144 6.27303 12.6107 6.919 13.2362C7.56498 13.8618 8.07739 14.6045 8.42699 15.4218C8.77659 16.2392 8.95652 17.1152 8.95652 17.9999H7.21739C7.21739 17.3364 7.08244 16.6794 6.82024 16.0663C6.55804 15.4533 6.17373 14.8963 5.68925 14.4272C5.20477 13.958 4.62961 13.5858 3.99661 13.3319C3.36361 13.078 2.68516 12.9473 2 12.9473V11.2631Z" fill="#0A0A0A"/>
<path fill-rule="evenodd" clip-rule="evenodd" d="M2 18L2 14.6316C2.45677 14.6316 2.90907 14.7187 3.33107 14.888C3.69337 15.0333 4.02724 15.2367 4.31884 15.4893C4.3669 15.531 4.4138 15.5739 4.4595 15.6182C4.5052 15.6624 4.54956 15.7078 4.59254 15.7544C4.85336 16.0368 5.06343 16.3601 5.21349 16.711C5.38829 17.1196 5.47826 17.5577 5.47826 18L2 18Z" fill="#0A0A0A"/>
<path fill-rule="evenodd" clip-rule="evenodd" d="M2 4.25641C2 3.01023 3.04784 2 4.34043 2H19.6596C20.9522 2 22 3.01023 22 4.25641V15.7436C22 16.9898 20.9522 18 19.6596 18H14.5532V16.7692H19.6596C20.2471 16.7692 20.7234 16.31 20.7234 15.7436V4.25641C20.7234 3.68996 20.2471 3.23077 19.6596 3.23077H4.34043C3.75289 3.23077 3.2766 3.68996 3.2766 4.25641V5.89744H2V4.25641Z" fill="#0A0A0A"/>
</svg>